<?xml version="1.0" encoding="UTF-8"?>
<svg id="Layer_2" xmlns="http://www.w3.org/2000/svg" viewBox="0 0 300 94.73">
  <defs>
    <style>
      .cls-1 {
        fill: #fff;
      }
    </style>
  </defs>
  <rect width="300" height="94.73" rx="16.19" ry="16.19"/>
  <g>
    <g id="Logo">
      <path class="cls-1" d="M73.3,49.86c0-4.81,2.69-8.98,6.64-11.12-.18-.3-2.5-3.95-8.09-5.48-1.28-.29-2.58-.41-3.89-.36-1.26.04-2.48.3-3.68.66-1.24.38-2.43.88-3.64,1.34-.68.26-1.36.5-2.07.62-.65.11-1.29.03-1.92-.14-.98-.26-1.91-.67-2.85-1.03-1.08-.42-2.16-.82-3.3-1.07-1.15-.25-2.31-.29-3.48-.17-1.73.17-3.37.66-4.92,1.45-2.08,1.06-3.78,2.55-5.15,4.43-1.41,1.93-2.32,4.07-2.84,6.39-.45,1.98-.62,3.99-.53,6.02.26,5.89,1.95,11.36,4.89,16.47.82,1.42,1.81,2.73,2.8,4.04.87,1.14,1.78,2.25,2.84,3.22.73.66,1.52,1.23,2.42,1.62.88.38,1.8.53,2.76.48,1.27-.06,2.44-.46,3.59-.94.86-.36,1.71-.74,2.6-.99,2.65-.74,5.23-.58,7.76.5.81.35,1.61.72,2.45.97,1.36.4,2.74.53,4.13.21,1.06-.24,1.98-.75,2.84-1.4,1.05-.8,1.94-1.76,2.75-2.79,1.6-2.04,3.09-4.15,4.24-6.47,0,0,1.22-2.32,1.87-4.61-4.82-1.78-8.26-6.41-8.26-11.85Z"/>
      <path class="cls-1" d="M57.82,31.63c-.21-1.7-.08-3.38.39-5.02.45-1.57,1.19-3.03,2.2-4.33,1.01-1.3,2.25-2.37,3.67-3.18,1.47-.85,3.08-1.38,4.77-1.59l.17-.02.02.17c.21,1.7.08,3.38-.39,5.02-.45,1.57-1.19,3.03-2.2,4.33-1.01,1.3-2.25,2.37-3.67,3.18-1.47.85-3.08,1.38-4.77,1.59l-.17.02-.02-.17Z"/>
    </g>
    <g>
      <g>
        <path class="cls-1" d="M93.64,17.57c1.15-.19,2.51-.31,3.98-.31,2.68,0,4.6.64,5.87,1.82,1.3,1.17,2.05,2.85,2.05,5.18s-.74,4.3-2.08,5.63c-1.37,1.35-3.61,2.09-6.41,2.09-1.34,0-2.45-.05-3.4-.16v-14.25ZM95.52,30.38c.47.08,1.17.09,1.88.09,4.01,0,6.17-2.22,6.17-6.14.02-3.42-1.91-5.58-5.86-5.58-.97,0-1.69.09-2.19.19v11.44Z"/>
        <path class="cls-1" d="M117.39,26.56c0,3.85-2.67,5.53-5.17,5.53-2.82,0-5-2.05-5-5.35,0-3.48,2.29-5.51,5.16-5.51s5,2.17,5,5.33ZM109.15,26.68c0,2.28,1.31,4,3.15,4s3.17-1.69,3.17-4.05c0-1.76-.89-3.98-3.13-3.98s-3.18,2.07-3.18,4.04Z"/>
        <path class="cls-1" d="M120.37,21.46l1.4,5.27c.3,1.16.56,2.25.77,3.32h.05c.23-1.05.58-2.18.93-3.3l1.7-5.29h1.59l1.62,5.2c.37,1.23.68,2.33.92,3.39h.05c.19-1.05.47-2.15.81-3.38l1.48-5.21h1.86l-3.36,10.39h-1.72l-1.58-4.96c-.38-1.17-.67-2.21-.92-3.43h-.04c-.26,1.25-.58,2.33-.95,3.44l-1.67,4.94h-1.73l-3.13-10.39h1.92Z"/>
        <path class="cls-1" d="M135.44,24.27c0-1.08-.04-1.95-.09-2.81h1.67l.1,1.71h.05c.51-.98,1.72-1.95,3.44-1.95,1.43,0,3.66.86,3.66,4.43v6.2h-1.88v-5.99c0-1.68-.63-3.09-2.4-3.09-1.24,0-2.21.88-2.55,1.94-.08.23-.13.57-.13.88v6.26h-1.88v-7.59Z"/>
        <path class="cls-1" d="M147.37,16.6h1.88v15.26h-1.88v-15.26Z"/>
        <path class="cls-1" d="M161.85,26.56c0,3.85-2.67,5.53-5.17,5.53-2.82,0-5-2.05-5-5.35,0-3.48,2.29-5.51,5.16-5.51s5,2.17,5,5.33ZM153.61,26.68c0,2.28,1.31,4,3.15,4s3.17-1.69,3.17-4.05c0-1.76-.89-3.98-3.13-3.98s-3.18,2.07-3.18,4.04Z"/>
        <path class="cls-1" d="M170,31.85l-.17-1.31h-.06c-.57.81-1.69,1.55-3.18,1.55-2.1,0-3.17-1.49-3.17-2.98,0-2.52,2.23-3.9,6.25-3.87v-.22c0-.84-.24-2.41-2.37-2.4-.97,0-1.98.29-2.71.77l-.43-1.26c.86-.56,2.12-.91,3.43-.91,3.18,0,3.95,2.17,3.95,4.25v3.89c0,.89.04,1.77.16,2.49h-1.7ZM169.71,26.55c-2.05-.04-4.39.32-4.39,2.33,0,1.24.82,1.81,1.76,1.81,1.37,0,2.23-.86,2.53-1.74.07-.2.09-.41.09-.6v-1.81Z"/>
        <path class="cls-1" d="M183.56,16.6v12.58c0,.92.04,1.96.09,2.68h-1.68l-.1-1.8h-.05c-.58,1.16-1.83,2.03-3.53,2.03-2.52,0-4.46-2.13-4.46-5.28-.02-3.47,2.14-5.59,4.67-5.59,1.6,0,2.67.75,3.14,1.58h.04v-6.21h1.88ZM181.69,25.69c0-.25-.02-.56-.08-.81-.29-1.19-1.31-2.17-2.74-2.17-1.96,0-3.13,1.72-3.13,4,0,2.11,1.05,3.86,3.09,3.86,1.27,0,2.41-.85,2.76-2.27.07-.25.09-.51.09-.81v-1.8Z"/>
        <path class="cls-1" d="M200.68,26.56c0,3.85-2.67,5.53-5.17,5.53-2.82,0-5-2.05-5-5.35,0-3.48,2.29-5.51,5.16-5.51s5,2.17,5,5.33ZM192.44,26.68c0,2.28,1.31,4,3.15,4s3.17-1.69,3.17-4.05c0-1.76-.89-3.98-3.13-3.98s-3.18,2.07-3.18,4.04Z"/>
        <path class="cls-1" d="M203.07,24.27c0-1.08-.04-1.95-.09-2.81h1.67l.1,1.71h.05c.51-.98,1.72-1.95,3.44-1.95,1.43,0,3.66.86,3.66,4.43v6.2h-1.88v-5.99c0-1.68-.63-3.09-2.4-3.09-1.24,0-2.21.88-2.55,1.94-.08.23-.13.57-.13.88v6.26h-1.88v-7.59Z"/>
        <path class="cls-1" d="M221.82,18.47v2.99h2.72v1.43h-2.72v5.6c0,1.29.37,2.03,1.43,2.03.49,0,.85-.06,1.1-.14l.09,1.44c-.37.14-.95.26-1.69.26-.87,0-1.59-.29-2.04-.8-.52-.57-.73-1.49-.73-2.71v-5.68h-1.61v-1.43h1.61v-2.99h1.85Z"/>
        <path class="cls-1" d="M226.66,16.6h1.88v6.49h.04c.31-.53.78-1.01,1.36-1.33.55-.33,1.22-.52,1.94-.52,1.4,0,3.62.85,3.62,4.44v6.19h-1.88v-5.98c0-1.68-.63-3.09-2.4-3.09-1.24,0-2.19.86-2.55,1.89-.1.26-.13.55-.13.9v6.28h-1.88v-15.26Z"/>
        <path class="cls-1" d="M239.65,27c.04,2.55,1.66,3.61,3.56,3.61,1.35,0,2.18-.24,2.88-.53l.33,1.34c-.66.3-1.82.66-3.47.66-3.19,0-5.11-2.13-5.11-5.25s1.86-5.61,4.89-5.61c3.39,0,4.28,2.97,4.28,4.89,0,.4-.02.68-.06.89h-7.29ZM245.18,25.64c.02-1.19-.49-3.06-2.61-3.06-1.93,0-2.75,1.74-2.9,3.06h5.51Z"/>
      </g>
      <g>
        <path class="cls-1" d="M100.41,60.77l-2.95,8.97h-3.82l9.71-28.55h4.43l9.75,28.55h-3.94l-3.06-8.97h-10.12ZM109.79,57.89l-2.83-8.22c-.62-1.87-1.05-3.57-1.47-5.21h-.1c-.41,1.67-.85,3.41-1.42,5.16l-2.81,8.27h8.63Z"/>
        <path class="cls-1" d="M121.46,55.93c0-2.61-.07-4.74-.17-6.67h3.33l.21,3.49h.08c1.49-2.5,3.94-3.96,7.27-3.96,4.96,0,8.7,4.18,8.7,10.4,0,7.38-4.52,11.02-9.32,11.02-2.74,0-5.09-1.19-6.31-3.23h-.08v11.15h-3.7v-22.2ZM125.17,61.4c0,.53.05,1.04.16,1.52.67,2.6,2.93,4.37,5.57,4.37,3.95,0,6.23-3.24,6.23-7.94,0-4.09-2.14-7.6-6.09-7.6-2.54,0-4.93,1.8-5.64,4.6-.12.48-.24,1.02-.24,1.51v3.54Z"/>
        <path class="cls-1" d="M145.56,55.93c0-2.61-.07-4.74-.17-6.67h3.33l.21,3.49h.08c1.49-2.5,3.94-3.96,7.27-3.96,4.96,0,8.7,4.18,8.7,10.4,0,7.38-4.52,11.02-9.32,11.02-2.74,0-5.09-1.19-6.31-3.23h-.08v11.15h-3.7v-22.2ZM149.27,61.4c0,.53.05,1.04.16,1.52.67,2.6,2.93,4.37,5.57,4.37,3.95,0,6.23-3.24,6.23-7.94,0-4.09-2.14-7.6-6.09-7.6-2.54,0-4.93,1.8-5.64,4.6-.12.48-.24,1.02-.24,1.51v3.54Z"/>
        <path class="cls-1" d="M203.88,43.36v5.9h5.35v2.82h-5.35v11.04c0,2.55.73,3.99,2.82,3.99.97,0,1.67-.12,2.16-.27l.17,2.83c-.72.28-1.88.51-3.33.51-1.71,0-3.13-.56-4.02-1.58-1.03-1.13-1.45-2.94-1.45-5.34v-11.19h-3.17v-2.82h3.17v-5.9h3.65Z"/>
        <path class="cls-1" d="M231.72,59.3c0,7.59-5.26,10.91-10.19,10.91-5.56,0-9.85-4.05-9.85-10.55,0-6.86,4.51-10.86,10.17-10.86s9.86,4.27,9.86,10.51ZM215.48,59.54c0,4.49,2.57,7.88,6.21,7.88s6.24-3.34,6.24-7.99c0-3.47-1.75-7.85-6.17-7.85s-6.28,4.07-6.28,7.96Z"/>
        <path class="cls-1" d="M239.8,53.05c.96-2.75,3.22-3.82,5.7-3.82.4,0,.7.03,1.04.1v3.5c-.38-.08-.76-.11-1.27-.11-2.63,0-4.48,1.76-4.99,4.55-.1.52-.15,1.13-.15,1.74v10.72h-3.71v-20.49h3.37v3.8Z"/>
        <path class="cls-1" d="M251.95,60.17c.07,5.04,3.27,7.11,7.01,7.11,2.67,0,4.3-.48,5.67-1.05l.66-.31v2.96c-1.31.6-3.59,1.31-6.84,1.31-6.3,0-10.08-4.19-10.08-10.34s3.66-11.06,9.64-11.06c6.68,0,8.43,5.86,8.43,9.64,0,.78-.04,1.34-.13,1.75h-14.37ZM262.85,57.49c.04-2.35-.96-6.03-5.14-6.03-3.8,0-5.42,3.44-5.72,6.03h10.86Z"/>
        <path class="cls-1" d="M187.17,40.71c-5.56,0-9.26,3.3-9.26,7.74,0,3.99,2.89,6.45,7.55,8.1,3.85,1.44,5.4,3,5.4,5.65,0,2.89-2.22,4.86-5.99,4.86-2.53,0-4.94-.82-6.59-1.85v3.61c1.64.77,4.07,1.32,6.32,1.32,6.76,0,9.99-3.85,9.99-8.23s-2.44-6.51-7.28-8.41c-3.94-1.52-5.68-2.83-5.68-5.48,0-1.95,1.48-4.27,5.4-4.27,2.57,0,4.48.82,5.39,1.36v-3.51c-1.27-.5-3.05-.9-5.27-.9Z"/>
      </g>
    </g>
  </g>
</svg>