<?xml version="1.0" encoding="UTF-8"?>
<svg id="Layer_1" xmlns="http://www.w3.org/2000/svg" viewBox="0 0 300 94.73">
  <defs>
    <style>
      .cls-1 {
        fill: #4990cd;
      }

      .cls-2 {
        fill: #fff;
      }

      .cls-3 {
        fill: #ef4437;
      }

      .cls-4 {
        fill: #fcc011;
      }

      .cls-5 {
        fill: #4eaf4e;
      }
    </style>
  </defs>
  <rect width="300" height="94.73" rx="16.19" ry="16.19"/>
  <g>
    <g>
      <path class="cls-4" d="M63.66,57.87l12.73-7.35c2.43-1.4,2.43-4.91,0-6.31l-12.73-7.35-10.89,10.5,10.89,10.5Z"/>
      <path class="cls-3" d="M31.24,76.58l32.42-18.72-10.89-10.5-26.99,26.02v.05c0,2.8,3.04,4.56,5.46,3.15Z"/>
      <path class="cls-5" d="M63.66,36.86L31.24,18.14c-2.43-1.4-5.46.35-5.46,3.15v.05l26.99,26.02,10.89-10.5Z"/>
      <polygon class="cls-1" points="25.78 21.34 25.78 73.38 52.76 47.36 25.78 21.34"/>
    </g>
    <g>
      <g>
        <path class="cls-2" d="M102.29,55.23h12.16c0,6.41-3.2,14.29-12.88,14.29s-12.96-7.81-12.96-13.86c0-7.56,4.79-14.07,13.21-14.07,4.25,0,7.74,1.98,10.44,5.47l-2.81,2.3c-2.38-2.99-5.04-4.21-7.81-4.21-4.43,0-8.89,3.35-8.89,10.29s4.14,10.65,8.67,10.65c3.35,0,7.31-1.08,8.78-7.31h-7.92v-3.56Z"/>
        <path class="cls-2" d="M175.08,67.97c0,4.9-2.05,8.57-9.47,8.57-4.17,0-6.84-1.23-8.03-3.93l3.35-1.2c.94,1.42,2.23,2.13,5.04,2.13s5.25-1.31,5.25-5.27v-1.9c-2.05,1.98-3.96,2.44-6.23,2.44-4.46,0-8.06-2.88-8.06-8.9,0-6.62,3.89-9.05,7.7-9.05,2.95,0,4.86.35,6.84,2.52v-1.99h3.6v16.59ZM171.2,59.87c0-3.85-2.52-5.61-5.33-5.61-3.42,0-5.15,2.28-5.15,5.54,0,3.59,1.87,5.61,5.07,5.61,3.6,0,5.4-2.43,5.4-5.54Z"/>
        <path class="cls-2" d="M177.62,68.83v-27.25h3.89v27.25h-3.89Z"/>
        <path class="cls-2" d="M191.84,68.83c-1.97,0-3.74-.67-5.11-1.93-1.37-1.26-2.31-3.09-2.73-5.28-.52-2.73-.21-5.17.9-7.05,1.1-1.87,2.94-3.1,5.3-3.55.56-.11,1.11-.16,1.64-.16,2.14,0,3.96.86,5.41,2.55,1.21,1.4,2.12,3.35,2.63,5.64l.05.22-12.02,2.29c.6,2.77,1.96,4.12,4.15,4.12h0c.37,0,.77-.04,1.19-.12,1.66-.32,2.59-1.35,3.54-2.9l.1-.17,3.02,1.5-.1.19c-1.3,2.48-3.32,3.95-6.17,4.5-.62.12-1.23.18-1.81.18ZM191.57,53.81c-.25,0-.5.02-.75.07-1.22.23-2.19.85-2.8,1.78-.58.9-.79,2.01-.6,3.24l8.19-1.56c-.48-2.09-2.12-3.54-4.04-3.54Z"/>
        <path class="cls-2" d="M211.3,68.87v-26.56h9.96c5.69,0,8.6,3.92,8.6,7.52,0,5.65-3.71,8.21-8.78,8.21h-5.53v10.83h-4.25ZM220.64,54.51c3.24,0,5.04-1.22,5.04-4.28,0-3.38-2.09-4.39-5.04-4.39h-5.1v8.67h5.1Z"/>
        <path class="cls-2" d="M232.53,68.83v-27.25h3.89v27.25h-3.89Z"/>
        <path class="cls-2" d="M254.36,68.83h-3.34v-1.72c-.98.73-2.32,1.72-5.44,1.72-3.77,0-6.01-2.23-6.01-5.95,0-2.86,1.85-5.75,5.98-5.75,2.65,0,4.04.63,5.06,1.36v-1.39c0-1.25-.45-2.92-4.37-2.92-1.76,0-2.99.42-4.28.86l-.46.16-.65-3.23.16-.07c1.75-.71,3.55-1.06,5.5-1.06,5.36,0,7.86,2.21,7.86,6.97v11.01ZM246.89,60.05c-3.21,0-3.69,1.85-3.69,2.95,0,1.8,1.24,2.8,3.48,2.8,3.6,0,3.99-1.94,3.99-2.77,0-1.37-.99-2.98-3.78-2.98Z"/>
        <path class="cls-2" d="M261.95,65.13l-6.54-14.27h4.21l4.53,10.46,4.75-10.46h4.28l-12.57,25.44h-4.28l5.62-11.17Z"/>
        <path class="cls-2" d="M125.27,54.38c3.2,0,5.8,2.6,5.8,5.8s-2.6,5.8-5.8,5.8-5.8-2.6-5.8-5.8,2.6-5.8,5.8-5.8M125.27,50.85c-5.15,0-9.33,4.18-9.33,9.33s4.18,9.33,9.33,9.33,9.33-4.18,9.33-9.33-4.18-9.33-9.33-9.33h0Z"/>
        <path class="cls-2" d="M145.98,54.38c3.2,0,5.8,2.6,5.8,5.8s-2.6,5.8-5.8,5.8-5.8-2.6-5.8-5.8,2.6-5.8,5.8-5.8M145.98,50.85c-5.15,0-9.33,4.18-9.33,9.33s4.18,9.33,9.33,9.33,9.33-4.18,9.33-9.33-4.18-9.33-9.33-9.33h0Z"/>
      </g>
      <g>
        <path class="cls-2" d="M95.81,31.74c-2.15,0-3.91-.69-5.24-2.06-1.23-1.25-1.96-3.02-1.96-4.74,0-1.82.71-3.52,2-4.79,1.29-1.27,3.02-1.96,4.86-1.96,1.21,0,2.26.19,3.21.57,1.02.42,1.56.78,2.72,1.84l.17.15-1.56,1.53-.15-.14c-.56-.52-.81-.71-1.27-.98-.91-.53-1.9-.8-2.94-.8-2.8,0-4.83,1.96-4.83,4.65,0,1.11.49,2.28,1.3,3.11.97.97,2.15,1.42,3.72,1.42,2.21,0,3.71-.96,4.34-2.77h-3.25v-2.12h5.68v.22c0,1.42-.06,1.94-.45,2.89-.31.8-.8,1.54-1.45,2.17-1.3,1.28-2.72,1.8-4.9,1.8Z"/>
        <polygon class="cls-2" points="104.66 31.33 104.66 18.58 111.92 18.58 111.92 20.7 106.75 20.7 106.75 23.33 111.92 23.33 111.92 25.43 106.75 25.43 106.75 29.23 111.92 29.23 111.92 31.33 104.66 31.33"/>
        <polygon class="cls-2" points="116.37 31.33 116.37 20.7 113.11 20.7 113.11 18.58 121.73 18.58 121.73 20.7 118.47 20.7 118.47 31.33 116.37 31.33"/>
        <rect class="cls-2" x="128.76" y="18.58" width="2.1" height="12.74"/>
        <polygon class="cls-2" points="136.02 31.33 136.02 20.7 132.76 20.7 132.76 18.58 141.38 18.58 141.38 20.7 138.12 20.7 138.12 31.33 136.02 31.33"/>
        <path class="cls-2" d="M154.59,31.74c-1.88,0-3.65-.71-4.96-2-1.32-1.29-2.04-3.02-2.04-4.87,0-3.69,3.17-6.69,7.06-6.69,1.84,0,3.57.7,4.89,1.97,1.32,1.27,2.05,2.95,2.05,4.72,0,3.85-3.08,6.87-7,6.87ZM154.51,20.34c-2.61,0-4.73,2.07-4.73,4.61s2.16,4.59,4.93,4.59c2.53,0,4.67-2.1,4.67-4.59,0-2.63-2.09-4.61-4.87-4.61Z"/>
        <polygon class="cls-2" points="165.77 22.68 172.75 31.3 174.87 31.3 174.87 18.58 172.75 18.58 172.75 27.35 165.77 18.58 163.65 18.58 163.65 31.3 165.77 31.3 165.77 22.68"/>
      </g>
    </g>
  </g>
</svg>