<svg xmlns="http://www.w3.org/2000/svg" viewBox="0 0 660.19 660.19"><path fill="#a41028" d="M553.1 26.42S660.19 107.1 660.19 306.6 520.83 660.19 377.07 660.19s-223-95.41-247.91-152.62c0 0 144.13 170.16 343.45 49.87s165.57-434.2 80.49-531.02z"/><path fill="#a41028" d="M107.08 633.77S0 553.09 0 353.59 139.36 0 283.11 0 506.09 95.41 531 152.62c0 0-144.13-170.16-343.44-49.88S22 537 107.08 633.77z"/><path fill="#0a3e82" d="M379.7 507.57l-1.7-50.4h-83.17l-17.89 50.4H168.4l154.14-355.13h125.29l38.1 355.13zm-61.2-117.28h57.74l-2.89-97.5c-1.15-21.19-.58-40.5 0-62.64h-.58c-5.77 22.14-12.12 41.45-19.63 62.64z"/></svg>