<?xml version="1.0" encoding="UTF-8"?>
<svg id="Layer_1" xmlns="http://www.w3.org/2000/svg" version="1.1" xmlns:xlink="http://www.w3.org/1999/xlink"
  viewBox="0 0 516.1 469.4">
  <!-- Generator: Adobe Illustrator 29.5.0, SVG Export Plug-In . SVG Version: 2.1.0 Build 137)  -->
  <defs>
    <style>
      .st0 {
        fill: url(#linear-gradient2);
      }

      .st1 {
        fill: #024da1;
      }

      .st2 {
        fill: #5e73e4;
      }

      .st3,
      .st4 {
        fill: #fff;
      }

      .st5 {
        fill: url(#linear-gradient1);
      }

      .st6,
      .st7,
      .st8 {
        fill: none;
      }

      .st7 {
        stroke-width: 3px;
      }

      .st7,
      .st8 {
        stroke-linecap: round;
        stroke-linejoin: round;
      }

      .st7,
      .st8,
      .st4,
      .st9 {
        stroke: #fff;
      }

      .st8 {
        stroke-width: 15px;
      }

      .st10 {
        clip-path: url(#clippath-1);
      }

      .st11 {
        isolation: isolate;
      }

      .st4 {
        stroke-width: 2px;
      }

      .st12 {
        fill: url(#linear-gradient3);
      }

      .st9 {
        fill: #eff2ff;
        stroke-width: 12px;
      }

      .st13 {
        fill: url(#linear-gradient);
      }

      .st14 {
        fill: #cd1431;
      }

      .st15 {
        clip-path: url(#clippath);
      }
    </style>
    <clipPath id="clippath">
      <circle class="st6" cx="253.5" cy="253.9" r="208.5" />
    </clipPath>
    <clipPath id="clippath-1">
      <rect class="st6" x="93" y="154.4" width="321" height="321" />
    </clipPath>
    <linearGradient id="linear-gradient" x1="253.5" y1="-581.3" x2="253.5" y2="-885.4"
      gradientTransform="translate(0 1048.1)" gradientUnits="userSpaceOnUse">
      <stop offset="0" stop-color="#024da1" />
      <stop offset="1" stop-color="#889dd0" />
    </linearGradient>
    <linearGradient id="linear-gradient1" x1="301.6" y1="-762.7" x2="301.6" y2="-651.7"
      gradientTransform="translate(0 1048.1)" gradientUnits="userSpaceOnUse">
      <stop offset="0" stop-color="#fff" />
      <stop offset="1" stop-color="#cf1f3a" />
      <stop offset="1" stop-color="#cd1431" />
    </linearGradient>
    <linearGradient id="linear-gradient2" x1="301.8" y1="-752.2" x2="301.8" y2="-662.2"
      gradientTransform="translate(0 1048.1)" gradientUnits="userSpaceOnUse">
      <stop offset="0" stop-color="#eff2ff" />
      <stop offset="1" stop-color="#fff" />
    </linearGradient>
    <linearGradient id="linear-gradient3" x1="432.5" y1="-964.8" x2="432.5" y2="-867.8"
      gradientTransform="translate(0 1048.1)" gradientUnits="userSpaceOnUse">
      <stop offset="0" stop-color="#ff9898" />
      <stop offset="1" stop-color="#cd1431" />
    </linearGradient>
  </defs>
  <g id="Object">
    <g>
      <image class="st11" width="2112" height="2114" transform="scale(.2)"
        xlink:href="Search Content not found-1.png" />
      <circle class="st9" cx="253.5" cy="253.9" r="215.5" />
      <g class="st15">
        <g>
          <g class="st10">
            <g>
              <path class="st1"
                d="M375.3,243.8l-76-76c-3.2-3-7.4-4.7-11.8-4.6-4.4,0-8.6,1.8-11.7,4.9s-4.9,7.3-5,11.7c0,4.4,1.6,8.6,4.6,11.8l-32.6,32.6,76,76,32.6-32.6c3.2,3.2,7.5,5,11.9,5s4.4-.4,6.5-1.3c2.1-.8,3.9-2.1,5.5-3.7s2.8-3.4,3.7-5.5c.8-2.1,1.3-4.2,1.3-6.5s-.4-4.4-1.3-6.5c-.8-2.1-2.1-3.9-3.7-5.5v.2Z" />
              <path class="st13"
                d="M287.3,162.8h-126.7c-9,0-17.6,3.6-23.9,9.9-6.3,6.3-9.9,14.9-9.9,23.9v236.5c0,9,3.6,17.6,9.9,23.9,6.3,6.3,14.9,9.9,23.9,9.9h185.8c9,0,17.6-3.6,23.9-9.9,6.3-6.3,9.9-14.9,9.9-23.9v-177.4h-76c-8.4,0-16.9-8.4-16.9-16.9v-76h0Z" />
              <path class="st3"
                d="M287.3,162.8h-16.9v76c0,9,3.6,17.6,9.9,23.9s14.9,9.9,23.9,9.9h76v-16.9h-76c-8.4,0-16.9-8.4-16.9-16.9v-76Z" />
              <path class="st3"
                d="M245.1,256.8c0,2.2-.9,4.4-2.5,6s-3.7,2.5-6,2.5h-67.6c-2.2,0-4.4-.9-6-2.5s-2.5-3.7-2.5-6,.9-4.4,2.5-6,3.7-2.5,6-2.5h67.6c2.2,0,4.4.9,6,2.5s2.5,3.7,2.5,6Z" />
              <path class="st3"
                d="M245.1,385.8c0,2.2-.9,4.4-2.5,6s-3.7,2.5-6,2.5h-67.6c-2.2,0-4.4-.9-6-2.5s-2.5-3.7-2.5-6,.9-4.4,2.5-6,3.7-2.5,6-2.5h67.6c2.2,0,4.4.9,6,2.5s2.5,3.7,2.5,6Z" />
              <path class="st3"
                d="M346.4,297.8c0,2.2-.9,4.4-2.5,6s-3.7,2.5-6,2.5h-168.9c-2.2,0-4.4-.9-6-2.5s-2.5-3.7-2.5-6,.9-4.4,2.5-6,3.7-2.5,6-2.5h168.9c2.2,0,4.4.9,6,2.5s2.5,3.7,2.5,6Z" />
              <path class="st3"
                d="M315,338.8c0,2.3-.7,4.4-2,6s-3.1,2.5-5,2.5h-140c-1.9,0-3.6-.9-5-2.5-1.3-1.6-2-3.8-2-6s.7-4.4,2-6,3.1-2.5,5-2.5h140c1.9,0,3.6.9,5,2.5,1.3,1.6,2,3.8,2,6Z" />
            </g>
          </g>
          <g>
            <path class="st14" d="M353,392.7l-3.4,3.1-10-10.7-3.5-3.8,3.4-3.1,3.5,3.8,10,10.7Z" />
            <path class="st2"
              d="M343,382l-1.6,1.6c-.6.5-1.1,1-1.7,1.5l-3.5-3.8,3.4-3.1,3.5,3.8h0ZM353.5,393.2l-1.6,1.6c-.6.5-1.1,1-1.7,1.5l-3.5-3.8,3.4-3.1,3.5,3.8h0Z" />
            <path class="st5"
              d="M357,342.8c-.4,11-4,21.6-10.4,30.5s-15.3,15.7-25.6,19.6c-10.3,3.8-21.5,4.6-32.1,2-10.7-2.5-20.4-8.1-27.9-16.1-10-10.8-15.4-25.1-14.9-39.8.5-14.7,6.8-28.6,17.6-38.7,22.4-20.9,57.6-19.6,78.4,2.7,5,5.3,8.9,11.6,11.4,18.4,2.6,6.8,3.7,14.1,3.5,21.4Z" />
            <path class="st0"
              d="M346.6,342.5c-.4,11.7-5.3,22.8-13.7,30.9-8.4,8.1-19.6,12.7-31.3,12.7h-1.6c-2.8,0-5.6-.4-8.3-1.1-5.2-1.2-10.2-3.2-14.7-6.2-3.1-2-5.9-4.4-8.4-7.1-8.1-8.8-12.3-20.4-11.9-32.3s5.6-23.2,14.3-31.3c8.7-8.1,20.3-12.5,32.2-12.1s23.2,5.4,31.4,14.1c1.8,1.9,3.4,4,4.9,6.2,2.9,4.5,5,9.4,6.2,14.6.8,3.8,1.2,7.6,1.1,11.5h-.2Z" />
            <path class="st8" d="M316.4,316.7c-7.3-4.1-15.9-5.2-24-3s-15,7.6-19.1,14.9" />
            <path class="st14"
              d="M394.5,439.2c-1.9,1.8-4.4,2.8-7,2.8h-.4c-1.3,0-2.7-.3-3.9-.9-1.2-.6-2.3-1.3-3.2-2.3l-37.8-39,15-14,37.8,39c1.9,2,2.8,4.6,2.7,7.4s-1.3,5.3-3.3,7.2v-.2Z" />
            <path class="st3"
              d="M395.4,438.2c-1,1.3-2.2,2.4-3.7,3.1-1.5.7-3.1,1.1-4.7,1h-.4c-1.3,0-2.7-.4-3.9-1-1.2-.6-2.3-1.4-3.2-2.4l-36.9-39.8,2.5-2.2,36.9,39.7c.9,1,2,1.8,3.2,2.4,1.2.6,2.5.9,3.9,1h.4c2.1,0,4.3-.6,6-1.8h0Z" />
            <path class="st7" d="M357,390.3l35.6,35.6" />
          </g>
        </g>
      </g>

    </g>
  </g>
</svg>