<svg id="Layer_1" data-name="Layer 1" xmlns="http://www.w3.org/2000/svg" viewBox="0 0 1921.56 660.19"><defs><style>.cls-1{fill:white;}.cls-2{fill:white;}.cls-3{fill:none;stroke:white;stroke-miterlimit:10;stroke-width:6px;}</style></defs><path class="cls-1" d="M1638.72,89.14s447.76,147,216.53,383.6S854.14,716,554.74,527.54c0,0,403.65,161.73,891.51,41.44S1891.34,200.08,1638.72,89.14Z"/><path class="cls-1" d="M282.84,571.23s-447.76-147-216.53-383.61,1001.11-243.26,1300.51-54.8c0,0-403.65-161.72-891.51-41.43S30.22,460.29,282.84,571.23Z"/><path class="cls-2" d="M323,438,322,406.82H270.61L259.55,438H192.49l95.24-219.42h77.4L388.67,438ZM285.23,365.5H320.9l-1.78-60.24c-.72-13.09-.36-25,0-38.7h-.36c-3.57,13.68-7.49,25.61-12.13,38.7Z"/><path class="cls-2" d="M414.35,364.63l21.76-146.09h64.56L478.56,364.92c-2.5,16.88.71,27.64,17.48,27.64,16.4,0,21.75-10.18,24.25-27.93L542.4,218.54h64.21L584.85,364.63c-7.49,48.88-35,76.82-93.45,76.82C433.26,441.45,406.86,413.8,414.35,364.63Z"/><path class="cls-2" d="M634.07,438l26-172h-40l6.78-47.44H773.18L766.05,266H724.67l-26,172Z"/><path class="cls-2" d="M767.12,323.89C776.75,260.16,814.2,215.05,877,215.05c67.06,0,91.31,53.55,82,116.4-10,67.51-45.3,110-109.86,110C784.24,441.45,757.13,391.69,767.12,323.89Zm126.63,4.36c5.7-39.87.71-64.31-21-64.31-20.69,0-34.24,23.57-40.3,64.31-6.07,40.16-.36,64.31,21,64.31C873.77,392.56,887.32,370.16,893.75,328.25Z"/><path class="cls-2" d="M1108.83,343.67,1149.49,438h-66.7l-29.61-90.79-3.21.29L1036.78,438H972.21L1005,218.54h67.41c64.56,0,95.24,25.61,88.11,70.43C1155.91,318.65,1139.14,335.82,1108.83,343.67Zm-45.66-82.93-8.2,58.2h5.7c22.83,0,32.82-10.19,35.32-29.68,3.21-21.83-6.42-28.52-27.47-28.52Z"/><path class="cls-2" d="M1167.68,438l32.81-219.42h126.27l-6.77,46h-61.71l-5.71,38.41h56.36l-6.78,45.69h-56.36L1239.37,392h61.71L1294,438Z"/><path class="cls-2" d="M1474.79,218.54h61.35L1503.32,438h-58.14l-40-137.06L1388.83,438h-61.71l32.81-219.42h61l40,135.61Z"/><path class="cls-2" d="M1565.74,438l26-172h-40l6.78-47.44h146.24L1697.72,266h-41.38l-26,172Z"/><path class="cls-2" d="M1735.27,201.26v13.9h-8.38V184.08h11.61c8.27,0,13.15,1.9,13.15,7.49v1.19c0,4.77-3.43,6-5.53,6.48,3.17.85,5,2.16,5,6.37,0,2.62-.08,7.67.5,9.55h-8.1c-.72-1.88-.57-7-.57-9.24,0-3.79-.85-4.66-5.72-4.66Zm0-3.95h1.92c4.44,0,6.07-1,6.07-4.34v-1.06c0-2.41-.87-3.87-5.62-3.87h-2.37Z"/><rect class="cls-3" x="1710.85" y="172.18" width="55.25" height="55.25" rx="27.63"/></svg>