<svg xmlns="http://www.w3.org/2000/svg" fill="#a41028" viewBox="0 0 128 128"><path d="M114 15.25H14A9.761 9.761 0 0 0 4.25 25v77A10.762 10.762 0 0 0 15 112.75h98A10.762 10.762 0 0 0 123.75 102V25a9.761 9.761 0 0 0-9.75-9.75zm6.25 9.75v11.683H52.888L61.37 18.75H114a6.257 6.257 0 0 1 6.25 6.25zM14 18.75h43.5l-8.484 17.933H7.75V25A6.257 6.257 0 0 1 14 18.75zM28.949 90.7l-7.812-7.961 5.91-7.379 9.491 5.883a1.75 1.75 0 0 0 2.056-.154 39.214 39.214 0 0 1 17.937-8.624 1.752 1.752 0 0 0 1.407-1.51l1.333-11.075h9.458l1.334 11.079a1.75 1.75 0 0 0 1.406 1.51 39.214 39.214 0 0 1 17.937 8.624 1.752 1.752 0 0 0 2.056.154l9.491-5.883 5.91 7.379-7.812 7.957a1.749 1.749 0 0 0-.3 2.038 38.863 38.863 0 0 1 4.449 16.512H91.027a27.083 27.083 0 0 0-54.054 0H24.8a38.863 38.863 0 0 1 4.45-16.508 1.749 1.749 0 0 0-.301-2.042zm58.569 18.55H40.482a23.582 23.582 0 0 1 47.036 0zm25.482 0h-6.3a42.248 42.248 0 0 0-4.273-16.99l8.021-8.174a1.749 1.749 0 0 0 .117-2.319l-7.85-9.8a1.749 1.749 0 0 0-2.288-.394l-9.743 6.039a42.757 42.757 0 0 0-17.3-8.317l-1.366-11.374a1.751 1.751 0 0 0-1.738-1.541H57.72a1.751 1.751 0 0 0-1.738 1.541l-1.369 11.373a42.757 42.757 0 0 0-17.3 8.317l-9.743-6.039a1.749 1.749 0 0 0-2.288.394l-7.85 9.8a1.749 1.749 0 0 0 .117 2.319l8.021 8.174a42.248 42.248 0 0 0-4.27 16.991H15A7.258 7.258 0 0 1 7.75 102V40.183h112.5V102a7.258 7.258 0 0 1-7.25 7.25z"></path><path d="M21.57 33.466a5.75 5.75 0 1 0-5.75-5.75 5.756 5.756 0 0 0 5.75 5.75zm0-8a2.25 2.25 0 1 1-2.25 2.25 2.253 2.253 0 0 1 2.25-2.25zM37.626 33.466a5.75 5.75 0 1 0-5.75-5.75 5.756 5.756 0 0 0 5.75 5.75zm0-8a2.25 2.25 0 1 1-2.25 2.25 2.253 2.253 0 0 1 2.25-2.25zM67.522 29.466h44.745a1.75 1.75 0 0 0 0-3.5H67.522a1.75 1.75 0 0 0 0 3.5z"></path></svg>