<svg xmlns="http://www.w3.org/2000/svg" fill="#a41028" viewBox="0 0 128 128"><path d="M76.959 78.101c-2.877 0-5.752-1.077-7.943-3.233l-3.998-3.939 2.809-2.85 3.996 3.938c2.832 2.789 7.441 2.789 10.273 0l1.826-1.8-3.451-3.399 2.807-2.849 6.342 6.249-4.715 4.648a11.3 11.3 0 0 1-7.946 3.235z"></path><path d="M81.998 67.279H69.814v-4h12.184c3.998 0 7.25-3.19 7.25-7.112v-2.476h4v2.476c0 6.127-5.047 11.112-11.25 11.112zM30.236 111.573l-6.169-38.384c-.191-1.143-.401-2.136-.586-3.012-.628-2.977-1.083-5.127.501-7.829l.141-.24 10.271-9.856 2.77 2.886-9.855 9.457c-.625 1.192-.471 2.114.086 4.756.193.915.413 1.952.62 3.19l6.171 38.396-3.95.636z"></path><path d="M101.303 56.492H70.688v-4h30.615c1.252 0 2.27-.991 2.27-2.208V6.21c0-1.219-1.018-2.21-2.27-2.21H26.697c-1.251 0-2.27.991-2.27 2.21v44.074c0 1.217 1.019 2.208 2.27 2.208h27.407v4H26.697c-3.458 0-6.27-2.785-6.27-6.208V6.21c0-3.424 2.813-6.21 6.27-6.21h74.605c3.457 0 6.27 2.786 6.27 6.21v44.074c0 3.424-2.812 6.208-6.269 6.208z"></path><path d="M28.908 29.84h13.607v4H28.908zM28.908 40.188h21.35v4h-21.35zM47.584 29.84h13.608v4H47.584zM66.264 29.84h13.605v4H66.264zM84.941 29.84h14.914v4H84.941zM24.515 20.911h78.556v4H24.515zM24.515 10.591h78.556v4H24.515z"></path><path d="m49.081 125.602-2.321-3.258c6.427-4.581 11.582-8.87 14.58-18.745 3.005-9.895 3.291-18.319.847-25.041l-.228-.627 8.82-29.044a4.234 4.234 0 0 0-.328-3.263 4.381 4.381 0 0 0-2.643-2.127l-2.463-.726c-2.353-.692-4.832.617-5.532 2.918l-.069.19-14.916 35.626-3.689-1.545 14.88-35.538c1.378-4.33 6.044-6.789 10.458-5.488l2.463.726a8.347 8.347 0 0 1 5.031 4.065 8.208 8.208 0 0 1 .637 6.324L66.17 77.83c2.506 7.436 2.168 16.491-1.002 26.931-3.359 11.063-9.273 15.984-16.087 20.841z"></path><path d="M77.301 128h-4v-15.811H26.732V128h-4v-19.811h54.569z"></path><path d="M77.301 128h-4v-15.811H26.732V128h-4v-19.811h54.569z"></path><path d="M64.414 116.984h4v4.729h-4z"></path></svg>