<svg xmlns="http://www.w3.org/2000/svg" fill="#a41028" viewBox="0 0 128 128"><path d="M37.612 37.226c-3.756 0-6.812-3.074-6.812-6.853s3.056-6.854 6.812-6.854c3.757 0 6.813 3.074 6.813 6.854 0 3.778-3.056 6.853-6.813 6.853zm0-9.702c-1.548 0-2.807 1.277-2.807 2.849 0 1.569 1.259 2.848 2.807 2.848s2.808-1.278 2.808-2.848c0-1.571-1.26-2.849-2.808-2.849zM70.079 27.765h55.317v4.005H70.079z"></path><path d="M25.33 46.679c-3.502-4.772-5.353-10.411-5.353-16.306 0-15.147 12.227-27.471 27.255-27.471 10.324 0 19.743 5.907 24.351 15.158h50.569L128 25.429v9.096l-8.424 5.162-9.323 2.446-9.545-2.504-9.544 2.504-9.547-2.504-9.541 2.503-.209-.054a28.001 28.001 0 0 1-2.743 4.599l-3.23-2.365a23.656 23.656 0 0 0 2.953-5.334l.647-1.657 2.578.673 9.545-2.505 9.547 2.504 9.544-2.504 9.545 2.504 7.735-2.028 6.007-3.683v-5.457l-3.777-4.76H69.005l-.527-1.195c-3.731-8.482-12.07-13.963-21.245-13.963-12.82 0-23.25 10.527-23.25 23.467 0 5.037 1.582 9.855 4.576 13.937l-3.229 2.368zM78.706 62.554h-4.004c0-.514-.055-1.034-.163-1.546l3.919-.825c.165.783.248 1.581.248 2.371zM73.473 58.497a7.202 7.202 0 0 0-1.956-1.969l2.245-3.315a11.189 11.189 0 0 1 3.039 3.056l-3.328 2.228zm-4.499-3.042a7.128 7.128 0 0 0-1.44-.146h-1.709v-4.004h1.711c.758 0 1.512.077 2.244.228l-.806 3.922zm-6.714-.146h-3.565v-4.004h3.565v4.004zM53.494 51.305h1.97v4.004h-1.97z"></path><path d="M52.041 51.307h1.971v4.004h-1.971zM48.237 55.311h-3.866v-4.004h3.866v4.004zm-7.732 0h-3.866v-4.004h3.866v4.004zm-7.733 0h-3.866v-4.004h3.866v4.004zm-7.731 0h-3.866v-4.004h3.866v4.004zm-7.732 0h-3.866v-4.004h3.866v4.004zm-8.231-.449a12.408 12.408 0 0 1-4.113-2.008l2.386-3.217a8.431 8.431 0 0 0 2.794 1.365l-1.067 3.86zm-7.229-5.346a12.613 12.613 0 0 1-1.728-4.229l3.92-.819a8.615 8.615 0 0 0 1.18 2.889l-3.372 2.159zm2.109-8.177L0 40.731a12.547 12.547 0 0 1 1.497-4.315l3.483 1.975a8.607 8.607 0 0 0-1.022 2.948zm3.025-5.342-2.557-3.083a12.45 12.45 0 0 1 3.996-2.229l1.276 3.796a8.457 8.457 0 0 0-2.715 1.516zm9.749-1.957h-3.865v-4.005h3.865v4.005zM19.394 30.035h1.97v4.005h-1.97z"></path><path d="M50.476 81.778h-4.005c0-.704-.561-1.277-1.248-1.277h-6.502v-4.004h6.502c2.896 0 5.253 2.369 5.253 5.281zM109.333 81.779h-4.004c0-2.911 2.354-5.28 5.248-5.28h6.504v4.004h-6.504c-.685 0-1.244.572-1.244 1.276z"></path><path d="m107.854 81.674-5.491-14.938c-.085-.231-.524-.537-.772-.537H54.213c-.194 0-.55.266-.605.452l-4.383 14.896-3.842-1.131 4.383-14.895c.558-1.897 2.469-3.328 4.447-3.328h47.377c1.922 0 3.869 1.358 4.531 3.161l5.49 14.936-3.757 1.384zM46.506 125.098h-3.593c-4.5 0-8.162-3.684-8.162-8.213v-6.891h4.005v6.891c0 2.32 1.865 4.208 4.157 4.208h3.593c2.292 0 4.157-1.888 4.157-4.208v-6.891h4.004v6.891c0 4.529-3.661 8.213-8.161 8.213zM112.89 125.098h-3.594c-4.5 0-8.161-3.684-8.161-8.213v-5.02h4.005v5.02c0 2.32 1.864 4.208 4.156 4.208h3.594c2.292 0 4.158-1.888 4.158-4.208v-10.004h4.004v10.004c0 4.529-3.661 8.213-8.162 8.213z"></path><path d="M116.577 113.557H39.225c-2.467 0-4.474-2.017-4.474-4.495v-16.66c0-1.934 1.085-4.357 2.522-5.639l6.56-5.845c1.381-1.229 3.812-2.158 5.656-2.158h56.822c1.842 0 4.273.929 5.654 2.158l6.563 5.845c1.439 1.285 2.523 3.708 2.523 5.637v16.661c.001 2.479-2.006 4.496-4.474 4.496zM49.489 82.766c-.862 0-2.345.566-2.991 1.143l-6.561 5.845c-.596.532-1.182 1.845-1.182 2.649v16.659c0 .266.215.491.469.491h77.353a.489.489 0 0 0 .471-.491V92.4c0-.802-.587-2.115-1.185-2.649l-6.562-5.843c-.647-.576-2.129-1.143-2.99-1.143H49.489z"></path><path d="M116.577 113.557H39.225c-2.467 0-4.474-2.017-4.474-4.495v-16.66c0-1.934 1.085-4.357 2.522-5.639l6.56-5.845c1.381-1.229 3.812-2.158 5.656-2.158h56.822c1.842 0 4.273.929 5.654 2.158l6.563 5.845c1.439 1.285 2.523 3.708 2.523 5.637v16.661c.001 2.479-2.006 4.496-4.474 4.496zM49.489 82.766c-.862 0-2.345.566-2.991 1.143l-6.561 5.845c-.596.532-1.182 1.845-1.182 2.649v16.659c0 .266.215.491.469.491h77.353a.489.489 0 0 0 .471-.491V92.4c0-.802-.587-2.115-1.185-2.649l-6.562-5.843c-.647-.576-2.129-1.143-2.99-1.143H49.489z"></path><path d="M102.143 113.556H54.915v-6.86c0-3.165 2.429-5.741 5.415-5.741h36.397c2.985 0 5.415 2.576 5.415 5.741v6.86zm-43.224-4.004h39.219v-2.856c0-.958-.632-1.737-1.41-1.737H60.33c-.765 0-1.411.796-1.411 1.737v2.856zM60.214 92.645h36.632v4.005H60.214z"></path><path d="M42.688 102.198h6.593v4.005h-6.593zM107.366 102.198h6.592v4.005h-6.592z"></path><path d="M42.688 92.645h11.536v4.005H42.688z"></path><path d="M102.422 92.645h11.536v4.005h-11.536z"></path></svg>