<svg xmlns="http://www.w3.org/2000/svg" fill="none" stroke-width="2" viewBox="0 0 64 64" stroke="#a41028"><path d="M52.5 7H19a4 4 0 0 0-4 4v40a4 4 0 0 0 4 4h1"></path><path d="M39.5 55H45a3.995 3.995 0 0 0 2.828-1.172A3.995 3.995 0 0 0 49 51V10.5A3.503 3.503 0 0 1 52.5 7a3.503 3.503 0 0 1 3.5 3.5V26a4 4 0 0 1-4 4h-2.9M22 16h18M22 22.054h18M22 28h18M22 34h18"></path><path d="M40 44.5a3 3 0 0 0-3-3H27a3 3 0 0 0-3 3v7.051a7.5 7.5 0 0 0 4.425 6.841L32 60l3.575-1.608A7.5 7.5 0 0 0 40 51.551V44.5z"></path><path d="m28.75 50.248 2.5 2 4-3.5"></path></svg>