<svg xmlns="http://www.w3.org/2000/svg" width="50px" fill="#a41028" height="50px" viewBox="0 0 128 128"><path d="M63.047 128c-33.095 0-60.02-26.592-60.02-59.277 0-32.682 26.925-59.271 60.02-59.271v4c-30.89 0-56.02 24.794-56.02 55.271 0 30.48 25.13 55.277 56.02 55.277 30.886 0 56.014-24.797 56.014-55.277h4c0 32.685-26.922 59.277-60.014 59.277z"></path><path d="M63.047 128c-19.61 0-35.565-26.592-35.565-59.277 0-32.682 15.955-59.271 35.565-59.271v4c-17.405 0-31.565 24.794-31.565 55.271 0 30.48 14.16 55.277 31.565 55.277 13.056 0 24.931-14.463 29.55-35.988l3.91.84C91.482 112.268 78.036 128 63.047 128z"></path><path d="M63.047 128h-2V58.292h4v65.673c29.964-1.042 54.014-25.423 54.014-55.242 0-3.042-.251-6.083-.747-9.041l3.945-.661a58.88 58.88 0 0 1 .802 9.702c0 32.685-26.922 59.277-60.014 59.277z"></path><path d="M118.661 90.912H7.42l-.49-1.288c-2.589-6.799-3.902-13.831-3.902-20.901 0-7.077 1.316-14.112 3.911-20.907l.491-1.287h58.092v4h-55.32C8.095 56.466 7.027 62.58 7.027 68.723c0 6.138 1.065 12.25 3.167 18.189H115.89c2.104-5.931 3.171-12.043 3.171-18.189h4c0 7.082-1.314 14.115-3.908 20.903l-.492 1.286z"></path><path d="M94.588 72.019 93.3 70.935c-1.188-1-29.103-24.683-29.103-40.914C64.197 13.467 77.83 0 94.588 0c16.754 0 30.385 13.467 30.385 30.021 0 16.231-27.908 39.913-29.097 40.914l-1.288 1.084zm0-68.019C80.036 4 68.197 15.673 68.197 30.021c0 12.576 20.93 31.905 26.391 36.733 5.459-4.83 26.385-24.166 26.385-36.733C120.973 15.673 109.137 4 94.588 4zm0 41.935c-8.879 0-16.102-7.14-16.102-15.915 0-8.769 7.223-15.902 16.102-15.902 8.865 0 16.078 7.133 16.078 15.902 0 8.775-7.213 15.915-16.078 15.915zm0-27.817c-6.673 0-12.102 5.339-12.102 11.902 0 6.57 5.429 11.915 12.102 11.915 6.66 0 12.078-5.345 12.078-11.915 0-6.562-5.418-11.902-12.078-11.902z"></path><path d="M94.588 45.935c-8.879 0-16.102-7.14-16.102-15.915 0-8.769 7.223-15.902 16.102-15.902 8.865 0 16.078 7.133 16.078 15.902 0 8.775-7.213 15.915-16.078 15.915zm0-27.817c-6.673 0-12.102 5.339-12.102 11.902 0 6.57 5.429 11.915 12.102 11.915 6.66 0 12.078-5.345 12.078-11.915 0-6.562-5.418-11.902-12.078-11.902z"></path></svg>