<svg xmlns="http://www.w3.org/2000/svg" viewBox="0 0 48 48" fill="#0a3e82"><path d="M9.86 43.38a1 1 0 01-.71-.29l-4.24-4.24a1 1 0 01-.09-1.32l3.56-4.62a18.21 18.21 0 01-1.73-4.16L.87 28A1 1 0 010 27v-6a1 1 0 01.87-1l5.78-.76a18.21 18.21 0 011.73-4.16l-3.56-4.61a1 1 0 01.09-1.32l4.24-4.24a1 1 0 011.32-.09l4.62 3.56a18.21 18.21 0 014.16-1.73L20 .87A1 1 0 0121 0h6a1 1 0 011 .87l.76 5.78a18.21 18.21 0 014.16 1.73l4.62-3.56a1 1 0 011.32.09l4.24 4.24a1 1 0 01.09 1.32l-3.56 4.62a17.77 17.77 0 011.73 4.16l5.78.76A1 1 0 0148 21v6a1 1 0 01-.87 1l-5.78.76a17.77 17.77 0 01-1.73 4.16l3.56 4.62a1 1 0 01-.09 1.32l-4.24 4.24a1 1 0 01-1.32.09l-4.4-3.39 1.22-1.58 3.71 2.85 3-3-3.44-4.47a1 1 0 010-1.14 15.94 15.94 0 002-4.83 1 1 0 01.85-.77l5.53-.74v-4.24l-5.58-.73a1 1 0 01-.85-.77 15.94 15.94 0 00-2-4.83 1 1 0 010-1.14l3.44-4.47-3-3-4.47 3.44a1 1 0 01-1.14 0 15.94 15.94 0 00-4.83-2 1 1 0 01-.77-.85L26.12 2h-4.24l-.73 5.58a1 1 0 01-.77.85 15.94 15.94 0 00-4.83 2 1 1 0 01-1.14 0L9.94 6.94l-3 3 3.44 4.47a1 1 0 010 1.14 15.94 15.94 0 00-2 4.83 1 1 0 01-.85.77L2 21.88v4.24l5.58.73a1 1 0 01.85.77 15.94 15.94 0 002 4.83 1 1 0 010 1.14l-3.49 4.47 3 3 3.71-2.85 1.22 1.58-4.4 3.39a1 1 0 01-.61.2z"/><path d="M24 22c-2.76 0-5-2.69-5-6s2.24-6 5-6 5 2.69 5 6-2.24 6-5 6zm0-10c-1.65 0-3 1.79-3 4s1.35 4 3 4 3-1.79 3-4-1.35-4-3-4zm-6 23h2v13h-2zm5 4h2v9h-2zm5-4h2v13h-2z"/><path d="M19 38h-2a3 3 0 01-3-3v-9.42a5 5 0 014.45-5l5.44-.6.22 2-5.44.61a3 3 0 00-2.67 3V35a1 1 0 001 1h1V26h2v11a1 1 0 01-1 1z"/><path d="M31 38h-2a1 1 0 01-1-1V26h2v10h1a1 1 0 001-1v-9.42a3 3 0 00-2.67-3L23.89 22l.22-2 5.44.6a5 5 0 014.45 5V35a3 3 0 01-3 3z"/><path d="M19 34h10v2H19z"/></svg>