<svg xmlns="http://www.w3.org/2000/svg" viewBox="0 0 64 64" fill="#0a3e82"><path d="M34 49h-4a1 1 0 00-1 1v4a1 1 0 001 1h4a1 1 0 001-1v-4a1 1 0 00-1-1zm-1 4h-2v-2h2zm-7-4h-4a1 1 0 00-1 1v4a1 1 0 001 1h4a1 1 0 001-1v-4a1 1 0 00-1-1zm-1 4h-2v-2h2zm-7-4h-4a1 1 0 00-1 1v4a1 1 0 001 1h4a1 1 0 001-1v-4a1 1 0 00-1-1zm-1 4h-2v-2h2zm-7-4H6a1 1 0 00-1 1v4a1 1 0 001 1h4a1 1 0 001-1v-4a1 1 0 00-1-1zm-1 4H7v-2h2zm26-11a1 1 0 00-1-1h-4a1 1 0 00-1 1v4a1 1 0 001 1h4a1 1 0 001-1zm-2 3h-2v-2h2zm-6-3a1 1 0 00-1-1h-4a1 1 0 00-1 1v4a1 1 0 001 1h4a1 1 0 001-1zm-2 3h-2v-2h2zm-6-3a1 1 0 00-1-1h-4a1 1 0 00-1 1v4a1 1 0 001 1h4a1 1 0 001-1zm-2 3h-2v-2h2zm-6-3a1 1 0 00-1-1H6a1 1 0 00-1 1v4a1 1 0 001 1h4a1 1 0 001-1zm-2 3H7v-2h2zm26-11a1 1 0 00-1-1h-4a1 1 0 00-1 1v4a1 1 0 001 1h4a1 1 0 001-1zm-2 3h-2v-2h2zm5-4a1 1 0 00-1 1v4a1 1 0 002 0v-3h3a1 1 0 000-2zm-11 1a1 1 0 00-1-1h-4a1 1 0 00-1 1v4a1 1 0 001 1h4a1 1 0 001-1zm-2 3h-2v-2h2zm-6-3a1 1 0 00-1-1h-4a1 1 0 00-1 1v4a1 1 0 001 1h4a1 1 0 001-1zm-2 3h-2v-2h2zm-6-3a1 1 0 00-1-1H6a1 1 0 00-1 1v4a1 1 0 001 1h4a1 1 0 001-1zm-2 3H7v-2h2zm50-7a1 1 0 00-1-1H6a1 1 0 000 2h52a1 1 0 001-1zM6 27h4a1 1 0 000-2H6a1 1 0 000 2zm12 0a1 1 0 000-2h-4a1 1 0 000 2zm8 0a1 1 0 000-2h-4a1 1 0 000 2zm8 0a1 1 0 000-2h-4a1 1 0 000 2zm8 0a1 1 0 000-2h-4a1 1 0 000 2zm8 0a1 1 0 000-2h-4a1 1 0 000 2zm8-2h-4a1 1 0 000 2h4a1 1 0 000-2z"/><path d="M58 10h-1V8a4 4 0 00-8 0v2h-6V8a4 4 0 00-8 0v2h-6V8a4 4 0 00-8 0v2h-6V8a4 4 0 00-8 0v2H6a6.006 6.006 0 00-6 6v38a6.006 6.006 0 006 6h45a12.991 12.991 0 10-10.562-5.415 1 1 0 001.624-1.17A10.9 10.9 0 0140 47a11 11 0 1111 11H6a4 4 0 01-4-4V22h60v13a1 1 0 002 0V16a6.006 6.006 0 00-6-6zm-7-2a2 2 0 014 0v6a2 2 0 01-4 0zM37 8a2 2 0 014 0v6a2 2 0 01-4 0zM23 8a2 2 0 014 0v6a2 2 0 01-4 0zM9 8a2 2 0 014 0v6a2 2 0 01-4 0zM2 20v-4a4 4 0 014-4h1v2a4 4 0 008 0v-2h6v2a4 4 0 008 0v-2h6v2a4 4 0 008 0v-2h6v2a4 4 0 008 0v-2h1a4 4 0 014 4v4z"/><path d="M51 41a1 1 0 00-1 1v5a1 1 0 00.293.707l4 4a1 1 0 001.414-1.414L52 46.586V42a1 1 0 00-1-1z"/></svg>